<svg width="53" height="53" viewBox="0 0 53 53" fill="none" xmlns="http://www.w3.org/2000/svg">
<path d="M32.5733 6.40555C32.5598 6.40573 32.5463 6.40642 32.5329 6.40762C23.077 7.16535 13.282 8.78296 3.93051 10.1249C3.92844 10.1252 3.92637 10.1255 3.9243 10.1259C3.91144 10.1282 3.89866 10.131 3.886 10.1342C3.88358 10.1345 3.88117 10.1349 3.87875 10.1352C3.87806 10.1352 3.87737 10.1352 3.87668 10.1352C3.86023 10.1396 3.84399 10.1448 3.82803 10.1507C3.81684 10.1549 3.80579 10.1593 3.79491 10.1642C3.78547 10.1681 3.77615 10.1722 3.76696 10.1766C3.75245 10.1839 3.73829 10.1919 3.72452 10.2004C3.71427 10.207 3.70426 10.2139 3.6945 10.2211C3.69207 10.2228 3.68965 10.2246 3.68725 10.2263C3.67839 10.2333 3.66976 10.2405 3.66137 10.2481C3.65647 10.2518 3.65164 10.2556 3.64688 10.2594C3.64373 10.2625 3.64063 10.2656 3.63756 10.2688C3.62486 10.2809 3.61277 10.2937 3.60133 10.3071C3.58993 10.3207 3.57922 10.3348 3.56924 10.3495C3.55998 10.3629 3.55135 10.3767 3.54336 10.3909C3.54087 10.3957 3.53846 10.4005 3.53612 10.4054C3.53021 10.4162 3.52469 10.4273 3.51955 10.4385C3.5174 10.4437 3.51533 10.4488 3.51334 10.4541C3.50923 10.4643 3.50543 10.4746 3.50196 10.4851C3.49892 10.4947 3.49616 10.5044 3.49368 10.5141C3.49181 10.521 3.49009 10.5279 3.4885 10.5348C3.48508 10.5498 3.48231 10.565 3.48022 10.5803C3.48022 10.5814 3.48022 10.5824 3.48022 10.5834C3.47872 10.5962 3.47768 10.6089 3.47711 10.6217C3.4766 10.6293 3.47626 10.6369 3.47608 10.6445C3.47599 10.65 3.47599 10.6556 3.47608 10.6611C3.47638 10.6728 3.47707 10.6846 3.47815 10.6963C3.47815 10.697 3.47815 10.6977 3.47815 10.6983C3.60617 12.0967 3.73569 14.3935 3.86737 15.8317C3.87389 15.9027 3.89467 15.9717 3.92846 16.0344C3.96226 16.0972 4.00837 16.1526 4.06405 16.1971C4.63047 16.6499 5.1792 17.1003 5.73996 17.5521C6.18671 23.9652 6.89152 30.3099 7.33618 36.6942C7.34393 36.8093 7.38899 36.9187 7.46454 37.0058C10.9952 41.0604 15.1203 45.1124 18.8067 48.9681C18.8665 49.0306 18.9407 49.0775 19.0228 49.1048C19.1049 49.132 19.1924 49.1387 19.2777 49.1244C19.2777 49.1244 33.6335 46.7231 46.6587 42.1702C46.7576 42.1355 46.8441 42.0723 46.9071 41.9884C46.9702 41.9046 47.0069 41.8039 47.0127 41.6992C47.4017 34.6163 47.7913 27.5319 48.1803 20.4485C48.1821 20.4132 48.1804 20.3778 48.1752 20.3429C48.7466 20.2641 49.3272 20.1797 49.8925 20.1048C50.0172 20.0881 50.1319 20.0276 50.2161 19.9342C50.3003 19.8407 50.3485 19.7203 50.3521 19.5945C50.4064 17.5747 50.4162 15.5534 50.38 13.5336C50.3798 13.5278 50.3795 13.5219 50.379 13.516C50.379 13.5154 50.379 13.5147 50.379 13.514C50.379 13.5133 50.379 13.5126 50.379 13.5119C50.3769 13.4773 50.3713 13.443 50.3624 13.4094C50.3581 13.3926 50.3529 13.376 50.3469 13.3597C50.3469 13.3594 50.3469 13.359 50.3469 13.3587C50.3462 13.3573 50.3455 13.3559 50.3449 13.3546C50.3401 13.3423 50.3349 13.3302 50.3293 13.3183C50.3283 13.3156 50.3273 13.3128 50.3262 13.31C50.3213 13.3002 50.3162 13.2906 50.3107 13.2811C50.3074 13.2751 50.3039 13.2693 50.3003 13.2635C50.299 13.2614 50.2976 13.2593 50.2962 13.2573C50.2881 13.2445 50.2795 13.232 50.2703 13.22C50.2608 13.2078 50.2508 13.1961 50.2403 13.1848C50.2389 13.1831 50.2375 13.1813 50.2362 13.1796C50.2334 13.1772 50.2307 13.1748 50.2279 13.1724C50.2189 13.1627 50.2096 13.1534 50.1999 13.1444C50.1992 13.1441 50.1985 13.1437 50.1979 13.1434C50.1968 13.1423 50.1958 13.1413 50.1948 13.1403C50.1844 13.1316 50.1737 13.1233 50.1627 13.1154C50.1606 13.1137 50.1585 13.112 50.1565 13.1103C50.1473 13.1038 50.138 13.0975 50.1285 13.0916C50.1271 13.0909 50.1257 13.0902 50.1244 13.0896C50.1106 13.0813 50.0964 13.0737 50.0819 13.0668C50.0694 13.0604 50.0566 13.0545 50.0436 13.0492C50.0402 13.0479 50.0366 13.0464 50.0333 13.045C44.5103 10.8677 38.4666 8.18423 32.7296 6.42833C32.6789 6.41297 32.6262 6.4053 32.5733 6.40555ZM32.5112 7.47591C37.4567 8.99719 42.6692 11.2167 47.6172 13.2148C46.8517 13.3079 46.0348 13.4192 45.2498 13.5295C35.455 14.906 25.8963 16.5352 16.1485 18.1194C14.1552 16.9638 10.6366 14.047 8.11254 12.5399C7.30731 12.0594 6.41531 11.5031 5.535 10.9613C14.4246 9.66804 23.6307 8.19332 32.5112 7.47591ZM49.3169 14.1351C49.3395 15.7984 49.3344 17.4623 49.2952 19.1256C38.763 20.5356 27.2044 22.6204 16.7985 24.7858C16.596 22.9769 16.564 20.9855 16.5594 19.1287C26.2283 17.5561 35.7031 15.9414 45.3968 14.5791C46.8406 14.3763 48.2752 14.2062 49.3169 14.1351ZM47.1162 20.4899C46.7358 27.4174 46.3559 34.3447 45.9755 41.2717C33.5453 45.574 20.4375 47.8354 19.6276 47.9733C19.1555 40.5066 18.6836 33.0387 18.2115 25.5715C27.514 23.6578 37.6636 21.8242 47.1162 20.4899ZM37.542 24.2703C37.3704 24.2813 37.1974 24.3027 37.0307 24.3231C35.5912 24.4996 31.0545 25.4381 30.2701 25.6512C29.9224 25.7455 29.5733 25.8407 29.2453 25.9907C28.7921 26.1979 28.374 26.5241 28.1625 26.9751C27.951 27.4262 27.9882 28.0118 28.3343 28.3695C28.805 28.8555 29.5936 28.7643 30.2576 28.6366L36.0038 27.5352C36.6117 27.4186 37.2289 27.2985 37.7791 27.0155C38.3298 26.7325 38.8139 26.2584 38.9612 25.6574C39.0402 25.3405 39.0141 24.9873 38.8349 24.7144C38.5587 24.293 38.057 24.2371 37.542 24.2703ZM42.3441 33.0639C42.2409 33.0684 42.1413 33.1029 42.0574 33.1632C41.9735 33.2235 41.9091 33.307 41.8721 33.4035C41.689 33.7794 41.2246 34.528 40.8773 35.3351C40.8231 35.454 40.8148 35.5889 40.854 35.7136C40.8931 35.8383 40.977 35.9442 41.0895 36.0108C41.202 36.0775 41.3351 36.1002 41.4633 36.0746C41.5915 36.0491 41.7058 35.977 41.7841 35.8723C41.7628 36.7094 41.7042 37.5455 41.7251 38.3826C41.7269 38.4522 41.7423 38.5208 41.7706 38.5844C41.7988 38.648 41.8394 38.7055 41.8898 38.7534C41.9403 38.8014 41.9997 38.839 42.0647 38.864C42.1297 38.889 42.199 38.901 42.2686 38.8992C42.3382 38.8974 42.4067 38.882 42.4704 38.8537C42.534 38.8254 42.5915 38.7849 42.6394 38.7344C42.6874 38.6839 42.7249 38.6245 42.7499 38.5595C42.7749 38.4945 42.7869 38.4253 42.7851 38.3557C42.7628 37.4632 42.8205 36.5721 42.8472 35.6798C42.9418 35.7419 43.0538 35.7721 43.1668 35.766C43.2798 35.7599 43.3879 35.7178 43.4753 35.6459C43.5626 35.5739 43.6246 35.4759 43.6523 35.3661C43.6799 35.2564 43.6716 35.1406 43.6288 35.0359C43.4103 34.4822 43.2176 34.0499 42.8721 33.4345C42.8371 33.3233 42.7664 33.2267 42.6709 33.1597C42.5755 33.0927 42.4606 33.059 42.3441 33.0639ZM38.6321 34.1467C38.5305 34.1512 38.4324 34.1849 38.3495 34.2436C38.2665 34.3024 38.2022 34.3837 38.1642 34.478C37.9828 34.8521 37.5131 35.6072 37.1642 36.4178C37.1116 36.5366 37.1045 36.6706 37.1441 36.7943C37.1838 36.9181 37.2676 37.0229 37.3795 37.0889C37.4914 37.155 37.6236 37.1776 37.7511 37.1526C37.8786 37.1275 37.9924 37.0565 38.071 36.953C38.0497 37.7908 37.9911 38.6276 38.012 39.4653C38.0138 39.5349 38.0292 39.6035 38.0575 39.6671C38.0858 39.7308 38.1263 39.7882 38.1767 39.8362C38.2272 39.8841 38.2866 39.9217 38.3516 39.9467C38.4166 39.9717 38.4859 39.9837 38.5555 39.9819C38.6251 39.9801 38.6936 39.9647 38.7573 39.9364C38.8209 39.9081 38.8783 39.8676 38.9263 39.8171C38.9743 39.7667 39.0118 39.7073 39.0368 39.6423C39.0618 39.5773 39.0738 39.508 39.072 39.4384C39.0497 38.546 39.1084 37.6549 39.1351 36.7625C39.2297 36.8243 39.3416 36.8541 39.4543 36.8478C39.5671 36.8415 39.6749 36.7994 39.762 36.7275C39.8492 36.6556 39.9111 36.5578 39.9387 36.4483C39.9663 36.3388 39.9583 36.2233 39.9157 36.1187C39.6976 35.5661 39.5051 35.1337 39.161 34.5204C39.1266 34.4084 39.056 34.311 38.9602 34.2434C38.8645 34.1758 38.7491 34.1418 38.6321 34.1467ZM44.1795 39.1113C44.1141 39.1105 44.0492 39.1217 43.988 39.1444C43.988 39.1444 40.5514 40.3625 37.0038 41.2613C36.9363 41.2785 36.8728 41.3087 36.817 41.3504C36.7612 41.392 36.7141 41.4443 36.6785 41.5041C36.6429 41.5639 36.6194 41.6302 36.6094 41.6991C36.5994 41.768 36.6031 41.8382 36.6202 41.9057C36.6374 41.9732 36.6676 42.0367 36.7093 42.0925C36.7509 42.1483 36.8032 42.1953 36.863 42.2309C36.9228 42.2666 36.9891 42.29 37.058 42.3C37.1269 42.31 37.1971 42.3064 37.2646 42.2892C40.8752 41.3744 44.342 40.1434 44.342 40.1434C44.4604 40.1033 44.5608 40.0226 44.6255 39.9157C44.6902 39.8087 44.715 39.6823 44.6956 39.5589C44.6761 39.4354 44.6137 39.3228 44.5192 39.2409C44.4248 39.159 44.3044 39.1131 44.1795 39.1113Z" fill="black"/>
</svg>
